<svg width="126" height="287" viewBox="0 0 126 287" fill="none" xmlns="http://www.w3.org/2000/svg">
<path fill-rule="evenodd" clip-rule="evenodd" d="M48.6191 136.652C51.3303 136.628 54.1093 139.325 56.0626 140.911C50.9797 137.512 42.9305 137.635 37.1022 136.816C31.4312 136.019 25.8006 134.822 20.3258 133.102C20.2059 133.066 8.06611 129.09 12.1772 126.808C23.549 120.429 37.6317 137.216 48.6191 136.652ZM-30.2876 84.3287C-28.1508 89.5698 -18.6878 115.235 -27.8846 117.068C-35.204 118.525 -41.483 102.907 -41.8766 97.6873C-42.5256 88.9971 -42.1292 80.3256 -43.3405 71.647C-38.2455 75.5529 -32.8267 78.0371 -30.2876 84.3287ZM-119.665 243.059C-123.174 247.394 -126.721 251.725 -130.539 255.792C-126.529 250.822 -122.703 245.827 -118.195 241.293L-119.666 243.059L-119.665 243.059ZM116.173 42.9015C114.248 40.4193 106.728 43.4518 104.575 43.9387C98.6696 45.2712 92.2783 46.4558 86.8796 44.1192C82.2488 42.9554 89.7451 34.9249 90.9184 31.8529C91.7412 29.6991 93.4574 24.2388 92.0311 22.0429C88.9745 17.3387 82.5761 22.8523 79.3901 25.0252C74.7245 28.2088 72.7939 30.27 73.6008 24.4267C74.4696 18.1457 81.0529 7.56631 74.3927 2.00231C68.7192 -2.73604 59.9017 6.26137 56.4747 9.87606C50.011 16.6828 47.0113 24.3827 45.6324 33.5476C45.3099 35.6842 42.8358 48.3194 40.6642 46.0932C36.3308 40.5245 39.7614 32.3487 36.3396 26.3478C34.3944 22.9374 31.7158 21.2468 30.081 17.4096C28.4663 13.6213 26.8355 6.82935 21.6128 6.41806C18.298 6.15829 16.1085 8.90088 15.5609 11.6352C13.8239 18.047 15.1307 23.8201 15.0185 30.3133C14.9347 35.0646 11.812 38.6369 12.9729 43.5255C14.8445 50.9767 17.2862 58.7911 18.5494 66.5508C18.9456 68.983 20.288 80.0557 15.5254 77.8908C12.8434 76.672 13.1208 66.3109 12.9384 64.49C12.5006 60.1392 12.5654 55.7972 9.94621 52.0284C8.44491 49.8679 5.95523 49.0365 4.79639 47.3406C1.37302 42.3259 1.60451 33.8257 -1.22222 28.3178C-3.75942 23.3757 -10.48 11.395 -16.3808 10.2229C-24.4603 8.61733 -21.4206 19.6157 -20.8937 24.439C-20.3084 29.779 -19.4109 34.6495 -19.8846 39.8596C-20.2996 44.4592 -19.9705 48.1868 -18.207 52.6549C-14.9495 60.91 -10.0417 68.0298 -5.92377 75.5507C-5.93206 75.5221 -5.94222 75.4941 -5.95416 75.4668C-3.64249 79.8817 -1.71831 85.3554 -1.93361 90.4603C-2.29574 99.0178 -5.25753 94.6606 -7.85776 88.8368C-11.7806 80.057 -14.3382 70.6685 -18.2137 61.8899C-19.5945 58.7628 -21.2503 55.5889 -24.1294 53.5503C-26.0609 52.1829 -28.451 52.5147 -29.9504 51.6865C-35.1679 48.8129 -54.3778 16.2521 -62.444 25.9581C-66.7998 31.1986 -55.9854 42.4017 -53.7053 46.3218C-50.0636 52.5828 -46.2 56.9028 -46.5688 64.3341C-48.6864 62.3671 -51.5983 63.3924 -53.5336 61.8301C-55.8339 59.9712 -56.4788 56.0286 -57.556 53.4504C-60.5175 46.3626 -64.0032 39.3834 -68.6359 33.2683C-82.7744 14.61 -80.3963 42.8164 -78.9963 52.1316C-78.7267 53.9185 -78.4133 56.2007 -78.1343 58.2353C-77.4118 63.5715 -78.653 64.438 -79.4163 69.1549C-80.713 77.1805 -71.2523 87.7682 -66.3631 93.5174C-64.8558 95.2934 -41.6056 124.103 -51.7986 123.862C-56.9384 123.74 -65.603 109.128 -68.0018 104.642C-71.6895 97.744 -74.2228 83.962 -81.8812 80.3839C-84.2872 79.2602 -86.2735 80.4418 -88.5027 79.5551C-93.7103 77.4902 -97.2436 69.3374 -101.01 65.5222C-108.676 57.758 -118.095 58.837 -111.682 71.4335C-109.142 76.4177 -107.883 79.744 -106.323 85.1688C-104.544 91.3572 -98.9558 94.5459 -96.3838 99.9673C-94.259 104.448 -97.5659 102.051 -97.3744 107.384C-97.2135 111.812 -90.3452 116.657 -87.1125 119.12C-82.6227 122.542 -62.3833 134.008 -66.3513 140.926C-69.9683 147.232 -81.7674 137.724 -84.9221 134.832C-92.8143 127.598 -95.9618 117.833 -100.401 108.464C-102.565 103.897 -105.041 98.3541 -108.582 94.6572C-111.687 91.4185 -115.22 90.975 -119.067 89.301C-123.547 87.3531 -143.292 76.9656 -142.382 89.5187C-141.771 97.9527 -130.02 102.037 -128.552 110.087C-133.837 107.733 -144.9 97.0265 -151.198 102.655C-157.277 108.089 -145.214 119.818 -141.539 124.252C-139.284 126.971 -123.845 139.206 -124.105 143.792C-124.377 148.579 -129.917 146.865 -133.119 146.229C-138.594 145.145 -187.621 133.076 -187.403 143.068C-187.236 150.816 -168.384 148.194 -165.948 152.588C-165.053 154.202 -167.002 154.99 -167.347 156.713C-168.609 163.029 -166.516 165.553 -159.883 166.245C-166.182 181.342 -145.327 173.332 -138.317 170.924C-133.541 169.283 -113.221 161.853 -111.814 172.048C-111.341 175.476 -117.08 180.876 -118.058 184.229C-119.943 190.698 -115.192 194.668 -108.951 192.48C-104.657 190.977 -100.756 187.175 -98.0015 183.652C-96.4177 181.631 -93.6199 174.978 -90.9785 174.517C-91.2417 185.468 -84.8544 179.806 -79.0281 175.1C-74.67 171.581 -63.8145 162.012 -57.337 165.818C-62.4086 172.856 -69.3384 178.461 -74.8783 185.107C-80.9412 192.388 -87.2511 199.187 -94.2443 206.067C-107.507 219.114 -120.8 233.334 -132.468 247.755C-138.176 254.809 -144.357 261.529 -150.475 268.227C-152.684 270.642 -166.548 281.478 -161.69 285.88C-155.117 291.833 -143.709 269.319 -139.018 266.714C-116.716 241.347 -92.9481 217.263 -71.331 191.409C-72.221 194.326 -71.2462 202.551 -66.837 202.41C-67.8762 204.807 -70.9929 208.46 -70.2691 211.205C-68.6625 217.275 -66.2059 211.806 -63.9284 212.162C-60.0369 212.772 -63.2321 219.788 -63.9522 222.648C-67.3132 235.974 -67.944 250.535 -68.8103 264.243C-69.2836 271.765 -62.9608 292.585 -52.2819 283.674C-46.9503 279.227 -46.3991 268.093 -46.06 261.86C-45.8445 257.927 -47.6402 247.01 -44.9116 243.608C-40.3949 245.995 -34.9754 256.735 -32.0754 260.581C-25.9456 268.716 -20.5817 273.887 -9.9309 274.583C15.374 276.236 -15.2706 247.495 -12.217 245.57C-10.0679 244.217 4.74821 256.715 6.70813 258.208C11.0515 261.516 24.2819 269.587 29.1394 262.818C33.2132 257.138 22.7929 247.631 19.7009 243.973C17.1075 240.905 15.171 236.706 11.9247 233.617C9.25418 231.075 5.67696 229.628 3.03242 227.208C0.281665 224.692 0.122367 221.07 -2.94429 218.192C-6.38426 214.957 -11.062 212.256 -14.8492 209.311C-21.1791 204.392 -30.135 197.996 -30.8766 189.068C-16.417 190.863 -6.54248 206.605 3.33026 215.753C8.26825 220.328 14.0817 226.198 21.233 224.64C24.1054 224.013 21.0302 223.454 24.8754 223.188C25.7383 223.129 26.9067 223.634 27.7427 223.829C33.7372 225.241 39.4792 227.426 45.4231 228.99C49.1098 229.961 60.9386 234.277 64.2442 230.73C70.2372 224.296 44.3614 208.132 39.7872 204.548C36.3264 201.839 32.1631 199.522 28.8965 196.709C25.8986 194.128 24.8909 190.684 20.8591 188.784C15.639 186.323 9.57035 185.478 4.12814 183.631C-3.19213 181.145 -9.28614 177.5 -15.3792 172.815C-17.9025 170.875 -24.0284 166.7 -22.7041 163.188C-20.5729 157.548 -10.9646 164.755 -8.24264 166.299C-0.182315 170.876 7.36141 178.168 17.3294 181.177C27.6402 184.292 32.9359 194.424 42.4303 198.96C45.8601 200.598 47.7905 200.754 51.4066 200.087C55.4302 199.35 57.3373 198.883 62.0641 200.085C66.3482 201.176 87.0192 207.891 85.4465 198.249C84.9368 195.121 80.403 193.831 78.1047 192.553C73.0415 189.733 68.1248 186.624 62.9936 183.929C59.7357 182.218 55.5953 181.037 52.928 178.383C50.3981 175.865 49.8334 173.304 46.1944 171.665C41.2948 169.456 33.9285 169.813 29.6378 166.826C25.5452 163.981 22.3099 159.892 17.624 157.264C13.8948 155.176 -7.23469 147.354 -6.65662 143.861C-5.48531 136.762 18.3111 150.33 20.1436 151.326C31.8229 157.672 43.2767 166.136 55.2663 172.113C59.2962 174.121 62.4231 173.374 66.1357 173.919C71.0672 174.643 76.2191 178.03 81.2267 179.203C85.2184 180.138 95.6575 182.58 93.6203 175.63C92.1504 170.607 82.6001 166.278 78.6072 163.238C74.0917 159.804 69.888 156.086 64.9983 153.181C63.9466 152.555 61.6288 151.764 60.8575 150.9C58.7272 148.503 60.1379 144.852 57.5749 142.155C60.2661 144.741 62.92 146.083 66.5721 146.119C67.5252 146.131 69.3612 145.109 70.5578 144.96C74.1692 144.509 78.4217 145.719 82.0384 146.129C87.1177 146.699 112.716 145.97 99.5305 136.996C93.8944 133.161 87.5563 130.253 81.2795 127.68C76.3484 125.658 69.8897 124.174 65.7337 120.779C61.4267 117.259 60.6368 115.442 54.3757 114.511C47.9417 113.556 38.8637 113.745 33.805 109.103C23.5012 99.6445 57.8187 105.994 61.468 106.915C68.8403 108.777 76.8104 110.237 84.3475 108.571C92.7516 106.715 99.7124 102.73 108.551 102.327C112.493 102.149 125.406 102.554 125.18 96.2209C124.959 89.9852 110.516 89.5708 106.684 88.8025C102.724 88.0095 98.2245 87.7391 94.4194 86.5796C90.9657 85.5251 88.3297 83.2974 84.9646 81.9983C75.4247 78.3108 67.3191 83.0147 57.8069 82.5731C52.785 82.3396 50.391 80.3643 55.6403 76.7776C58.4721 74.8385 63.0211 74.6577 66.3596 73.719C71.3817 72.3086 76.326 70.51 81.284 68.8809C87.9745 66.6795 125.541 54.8996 116.173 42.9015Z" fill="#89B99A"/>
</svg>
